<svg width="160" height="52" viewBox="0 0 160 52" fill="none" xmlns="http://www.w3.org/2000/svg">
<rect x="0.5" y="0.5" width="159" height="51" rx="9.5" stroke="white"/>
<path d="M32.745 27.1174C32.7721 25.2182 33.7581 23.4659 35.3564 22.4767C34.3535 21.0056 32.7241 20.1023 30.9621 20.0406C29.1131 19.8457 27.3182 21.1673 26.3757 21.1673C25.4332 21.1673 23.9744 20.065 22.4076 20.0954C20.3517 20.1624 18.4811 21.3182 17.479 23.1405C15.3479 26.8799 16.9387 32.3793 18.9798 35.4C20.0003 36.886 21.1949 38.5364 22.7558 38.4451C24.3166 38.3537 24.8509 37.4585 26.6938 37.4585C28.5368 37.4585 29.0531 38.4451 30.6499 38.4085C32.2467 38.372 33.3213 36.9225 34.3058 35.4304C35.0261 34.3911 35.583 33.2447 35.9567 32.0321C34.0131 31.1936 32.7496 29.2601 32.745 27.1174Z" fill="white"/>
<path d="M29.737 18.0796C30.6217 16.9882 31.0523 15.5901 30.9376 14.1819C29.5754 14.3154 28.3138 14.9683 27.4078 16.0089C26.5127 17.0421 26.0592 18.3939 26.1471 19.7666C27.5353 19.7917 28.8582 19.17 29.737 18.0796Z" fill="white"/>
<path d="M53.7822 20.5985C53.2624 20.5985 52.7747 20.5065 52.3189 20.3226C51.8631 20.1307 51.4713 19.8508 51.1434 19.483L51.8151 18.8353C52.3269 19.371 52.9626 19.6389 53.7222 19.6389C54.29 19.6389 54.7298 19.499 55.0416 19.2191C55.3535 18.9392 55.5094 18.5554 55.5094 18.0676C55.5094 17.5798 55.3535 17.208 55.0416 16.9521C54.7378 16.6882 54.286 16.5563 53.6863 16.5563H52.8946L53.0505 15.6207H53.6982C54.178 15.6207 54.5579 15.5008 54.8377 15.2609C55.1256 15.013 55.2695 14.6771 55.2695 14.2533C55.2695 13.8775 55.1536 13.5736 54.9217 13.3417C54.6978 13.1018 54.35 12.9819 53.8782 12.9819C53.2225 12.9819 52.5828 13.2378 51.959 13.7496L51.3593 13.0659C52.127 12.3862 52.9946 12.0463 53.9621 12.0463C54.7618 12.0463 55.3775 12.2462 55.8093 12.6461C56.2411 13.0379 56.457 13.5416 56.457 14.1574C56.457 14.6611 56.3131 15.073 56.0252 15.3928C55.7373 15.7047 55.3415 15.9166 54.8377 16.0285C55.3815 16.0845 55.8333 16.2884 56.1931 16.6402C56.553 16.9921 56.7329 17.4719 56.7329 18.0796C56.7329 18.5754 56.6049 19.0152 56.349 19.399C56.1012 19.7748 55.7533 20.0707 55.3055 20.2866C54.8577 20.4945 54.35 20.5985 53.7822 20.5985Z" fill="white"/>
<path d="M62.676 18.9792C62.676 19.2351 62.72 19.427 62.8079 19.5549C62.8959 19.6749 63.0278 19.7668 63.2038 19.8308L62.9519 20.5985C62.624 20.5585 62.3601 20.4665 62.1602 20.3226C61.9603 20.1786 61.8124 19.9547 61.7164 19.6509C61.2926 20.2826 60.6649 20.5985 59.8333 20.5985C59.2096 20.5985 58.7178 20.4225 58.358 20.0707C57.9981 19.7189 57.8182 19.2591 57.8182 18.6913C57.8182 18.0196 58.0581 17.5039 58.5379 17.144C59.0256 16.7842 59.7133 16.6043 60.6009 16.6043H61.5725V16.1365C61.5725 15.6887 61.4645 15.3688 61.2486 15.1769C61.0327 14.985 60.7009 14.889 60.2531 14.889C59.7893 14.889 59.2216 15.001 58.5499 15.2249L58.274 14.4213C59.0576 14.1334 59.7853 13.9894 60.457 13.9894C61.2007 13.9894 61.7564 14.1734 62.1242 14.5412C62.4921 14.901 62.676 15.4168 62.676 16.0885V18.9792ZM60.0852 19.7708C60.7169 19.7708 61.2127 19.443 61.5725 18.7873V17.3359H60.7449C59.5774 17.3359 58.9937 17.7677 58.9937 18.6313C58.9937 19.0072 59.0856 19.291 59.2695 19.483C59.4535 19.6749 59.7253 19.7708 60.0852 19.7708Z" fill="white"/>
<path d="M66.0458 20.4545H64.9423V14.1334H68.8885L68.7446 15.045H66.0458V20.4545Z" fill="white"/>
<path d="M72.9872 13.9894C73.7948 13.9894 74.3866 14.2773 74.7624 14.8531C75.1382 15.4288 75.3261 16.2404 75.3261 17.288C75.3261 18.2795 75.1102 19.0791 74.6784 19.6869C74.2466 20.2946 73.6349 20.5985 72.8433 20.5985C72.1396 20.5985 71.5878 20.3586 71.188 19.8788V22.8774L70.0845 23.0094V14.1334H71.0321L71.1161 14.985C71.3479 14.6651 71.6278 14.4213 71.9557 14.2533C72.2835 14.0774 72.6274 13.9894 72.9872 13.9894ZM72.5794 19.6989C73.6189 19.6989 74.1387 18.8952 74.1387 17.288C74.1387 15.6727 73.6629 14.8651 72.7113 14.8651C72.3995 14.8651 72.1156 14.957 71.8597 15.1409C71.6038 15.3248 71.3799 15.5607 71.188 15.8486V18.9312C71.3479 19.1791 71.5479 19.371 71.7877 19.5069C72.0276 19.6349 72.2915 19.6989 72.5794 19.6989Z" fill="white"/>
<path d="M79.6903 20.4905C79.4424 21.2262 79.0946 21.8059 78.6468 22.2297C78.207 22.6615 77.5753 22.9214 76.7516 23.0094L76.6317 22.1458C77.0475 22.0738 77.3793 21.9698 77.6272 21.8339C77.8751 21.698 78.071 21.522 78.215 21.3061C78.3669 21.0982 78.5068 20.8144 78.6348 20.4545H78.2629L76.1399 14.1334H77.3154L79.0066 19.6509L80.6619 14.1334H81.8013L79.6903 20.4905Z" fill="white"/>
<path d="M84.5052 13.9894C84.905 13.9894 85.2768 14.0574 85.6207 14.1934C85.9725 14.3213 86.2524 14.5132 86.4603 14.7691C86.6762 15.025 86.7841 15.3328 86.7841 15.6927C86.7841 16.0445 86.6802 16.3324 86.4723 16.5563C86.2724 16.7802 85.9525 16.9521 85.5127 17.0721C86.0405 17.16 86.4403 17.3239 86.7122 17.5638C86.9841 17.8037 87.12 18.1476 87.12 18.5954C87.12 19.2511 86.8641 19.7508 86.3523 20.0947C85.8486 20.4305 85.2049 20.5985 84.4212 20.5985C83.4697 20.5985 82.658 20.3346 81.9863 19.8068L82.5621 19.1231C82.8419 19.323 83.1218 19.471 83.4017 19.5669C83.6895 19.6629 84.0174 19.7109 84.3852 19.7109C85.4168 19.7109 85.9325 19.335 85.9325 18.5834C85.9325 18.2155 85.7846 17.9596 85.4887 17.8157C85.2009 17.6638 84.797 17.5878 84.2773 17.5878H83.4377L83.5096 16.7242H84.1573C84.6051 16.7242 84.965 16.6442 85.2369 16.4843C85.5087 16.3244 85.6447 16.0765 85.6447 15.7407C85.6447 15.4288 85.5287 15.2049 85.2968 15.069C85.0649 14.925 84.7611 14.8531 84.3852 14.8531C84.0574 14.8531 83.7655 14.897 83.5096 14.985C83.2617 15.065 83.0099 15.1929 82.754 15.3688L82.2262 14.7091C82.5461 14.4692 82.8899 14.2893 83.2577 14.1694C83.6256 14.0494 84.0414 13.9894 84.5052 13.9894Z" fill="white"/>
<path d="M93.8609 20.4545H92.7694V17.5998C92.7694 17.12 92.7854 16.6642 92.8174 16.2324C92.8494 15.8006 92.8774 15.5168 92.9014 15.3808L90.2506 20.4545H88.9432V14.1334H90.0347V16.9881C90.0347 17.4119 90.0187 17.8517 89.9867 18.3075C89.9547 18.7553 89.9307 19.0432 89.9147 19.1711L92.5295 14.1334H93.8609V20.4545Z" fill="white"/>
<path d="M100.405 14.1334L100.273 15.033H98.2463V20.4545H97.1428V15.033H95.0557V14.1334H100.405Z" fill="white"/>
<path d="M106.016 17.108C106.016 17.292 106.008 17.4799 105.992 17.6718H101.962C102.01 18.3675 102.186 18.8792 102.49 19.2071C102.794 19.5349 103.185 19.6989 103.665 19.6989C103.969 19.6989 104.249 19.6549 104.505 19.5669C104.761 19.479 105.029 19.339 105.308 19.1471L105.788 19.8068C105.117 20.3346 104.381 20.5985 103.581 20.5985C102.702 20.5985 102.014 20.3106 101.518 19.7348C101.03 19.1591 100.786 18.3675 100.786 17.3599C100.786 16.7042 100.89 16.1245 101.098 15.6207C101.314 15.1089 101.618 14.7091 102.01 14.4213C102.41 14.1334 102.878 13.9894 103.413 13.9894C104.253 13.9894 104.897 14.2653 105.344 14.8171C105.792 15.3688 106.016 16.1325 106.016 17.108ZM104.925 16.7842C104.925 16.1605 104.801 15.6847 104.553 15.3568C104.305 15.029 103.933 14.8651 103.437 14.8651C102.534 14.8651 102.042 15.5288 101.962 16.8561H104.925V16.7842Z" fill="white"/>
<path d="M114.287 17.0241C115.359 17.128 115.895 17.6238 115.895 18.5114C115.895 19.1751 115.651 19.6669 115.163 19.9867C114.683 20.2986 114.039 20.4545 113.232 20.4545H110.953V14.2173C111.696 14.0654 112.388 13.9894 113.028 13.9894C113.811 13.9894 114.431 14.1374 114.887 14.4332C115.343 14.7291 115.571 15.1529 115.571 15.7047C115.571 16.0645 115.463 16.3564 115.247 16.5803C115.031 16.8042 114.711 16.9521 114.287 17.0241ZM113.04 14.8411C112.704 14.8411 112.376 14.8651 112.056 14.913V16.7002H113.244C113.628 16.7002 113.923 16.6283 114.131 16.4843C114.339 16.3404 114.443 16.0965 114.443 15.7526C114.443 15.4328 114.327 15.2009 114.095 15.057C113.863 14.913 113.512 14.8411 113.04 14.8411ZM113.232 19.5909C113.703 19.5909 114.071 19.5109 114.335 19.351C114.599 19.1911 114.731 18.9032 114.731 18.4874C114.731 18.1436 114.619 17.8957 114.395 17.7437C114.171 17.5918 113.791 17.5159 113.256 17.5159H112.056V19.5909H113.232Z" fill="white"/>
<path d="M60.0404 38.6485L59.3183 35.9617H55.4729L54.7508 38.6485H52.4502L56.0606 27.045H58.7978L62.3913 38.6485H60.0404ZM55.9095 34.2825H58.8649L57.3872 28.741L55.9095 34.2825Z" fill="white"/>
<path d="M68.2184 29.5135C69.3379 29.5135 70.1664 29.9221 70.7037 30.7393C71.2411 31.5565 71.5097 32.704 71.5097 34.1817C71.5097 35.0997 71.3698 35.917 71.0899 36.6334C70.8213 37.3387 70.4182 37.8929 69.8809 38.2959C69.3547 38.6989 68.7278 38.9004 68.0001 38.9004C67.0598 38.9004 66.3153 38.5758 65.7667 37.9265V42.0742L63.6173 42.3093V29.7653H65.4981L65.6156 30.8569C65.9627 30.4091 66.3601 30.0732 66.8079 29.8493C67.2557 29.6254 67.7259 29.5135 68.2184 29.5135ZM67.3956 37.2548C68.6382 37.2548 69.2596 36.236 69.2596 34.1985C69.2596 33.1126 69.1196 32.329 68.8398 31.8476C68.5599 31.3662 68.1401 31.1255 67.5803 31.1255C67.2221 31.1255 66.8862 31.2375 66.5728 31.4614C66.2593 31.6741 65.9906 31.9652 65.7667 32.3346V36.3312C66.181 36.9469 66.7239 37.2548 67.3956 37.2548Z" fill="white"/>
<path d="M78.2217 29.5135C79.3412 29.5135 80.1696 29.9221 80.707 30.7393C81.2444 31.5565 81.513 32.704 81.513 34.1817C81.513 35.0997 81.3731 35.917 81.0932 36.6334C80.8245 37.3387 80.4215 37.8929 79.8842 38.2959C79.358 38.6989 78.7311 38.9004 78.0034 38.9004C77.063 38.9004 76.3186 38.5758 75.77 37.9265V42.0742L73.6206 42.3093V29.7653H75.5014L75.6189 30.8569C75.9659 30.4091 76.3634 30.0732 76.8112 29.8493C77.259 29.6254 77.7291 29.5135 78.2217 29.5135ZM77.3989 37.2548C78.6415 37.2548 79.2628 36.236 79.2628 34.1985C79.2628 33.1126 79.1229 32.329 78.843 31.8476C78.5632 31.3662 78.1434 31.1255 77.5836 31.1255C77.2254 31.1255 76.8895 31.2375 76.5761 31.4614C76.2626 31.6741 75.9939 31.9652 75.77 32.3346V36.3312C76.1842 36.9469 76.7272 37.2548 77.3989 37.2548Z" fill="white"/>
<path d="M91.2309 26.7931C92.0481 26.7931 92.759 26.9106 93.3635 27.1457C93.968 27.3808 94.5334 27.7391 95.0595 28.2204L93.968 29.4799C93.5538 29.1328 93.134 28.8809 92.7086 28.7242C92.2944 28.5675 91.8466 28.4891 91.3652 28.4891C90.8278 28.4891 90.3912 28.6123 90.0554 28.8586C89.7307 29.0937 89.5684 29.4295 89.5684 29.8661C89.5684 30.1572 89.63 30.3979 89.7531 30.5882C89.8875 30.7785 90.1225 30.9576 90.4584 31.1255C90.7942 31.2935 91.2924 31.4782 91.9529 31.6797C93.0948 32.0379 93.9512 32.4857 94.5222 33.0231C95.1043 33.5492 95.3954 34.3217 95.3954 35.3404C95.3954 36.0345 95.2162 36.6502 94.858 37.1876C94.511 37.7249 94.0072 38.1448 93.3467 38.447C92.6862 38.7493 91.9025 38.9004 90.9958 38.9004C90.1114 38.9004 89.3165 38.7605 88.6112 38.4806C87.9171 38.1895 87.3182 37.7977 86.8144 37.3051L87.9563 36.0289C88.4041 36.4095 88.8687 36.7006 89.3501 36.9021C89.8315 37.0924 90.3632 37.1876 90.9454 37.1876C91.5835 37.1876 92.0985 37.0365 92.4903 36.7342C92.8821 36.4319 93.078 36.0065 93.078 35.458C93.078 35.1221 93.0108 34.8478 92.8765 34.6351C92.7422 34.4112 92.5127 34.2153 92.188 34.0474C91.8634 33.8683 91.3932 33.6836 90.7775 33.4933C89.546 33.1126 88.656 32.6536 88.1075 32.1163C87.5589 31.5789 87.2846 30.8736 87.2846 30.0004C87.2846 29.3623 87.4526 28.8026 87.7884 28.3212C88.1243 27.8398 88.5888 27.4648 89.1822 27.1961C89.7867 26.9274 90.4696 26.7931 91.2309 26.7931Z" fill="white"/>
<path d="M102.307 38.2287C101.993 38.4526 101.641 38.6205 101.249 38.7325C100.868 38.8444 100.476 38.9004 100.073 38.9004C99.2 38.8892 98.5339 38.6429 98.0749 38.1615C97.6271 37.669 97.4032 36.9469 97.4032 35.9953V31.3102H96.0095V29.7653H97.4032V27.8006L99.5527 27.5487V29.7653H101.618L101.4 31.3102H99.5527V35.9449C99.5527 36.3816 99.6254 36.695 99.771 36.8853C99.9277 37.0756 100.168 37.1708 100.493 37.1708C100.818 37.1708 101.17 37.0644 101.551 36.8517L102.307 38.2287Z" fill="white"/>
<path d="M106.864 29.5135C108.174 29.5135 109.193 29.9333 109.92 30.7729C110.659 31.6013 111.029 32.7432 111.029 34.1985C111.029 35.1277 110.861 35.9505 110.525 36.667C110.189 37.3723 109.708 37.9209 109.081 38.3127C108.454 38.7045 107.709 38.9004 106.847 38.9004C105.537 38.9004 104.513 38.4862 103.774 37.6578C103.035 36.8182 102.666 35.6651 102.666 34.1985C102.666 33.2694 102.834 32.4521 103.17 31.7468C103.506 31.0416 103.987 30.493 104.614 30.1012C105.252 29.7094 106.002 29.5135 106.864 29.5135ZM106.864 31.1423C105.577 31.1423 104.933 32.1611 104.933 34.1985C104.933 35.2509 105.09 36.0289 105.403 36.5327C105.728 37.0253 106.209 37.2715 106.847 37.2715C107.485 37.2715 107.961 37.0197 108.275 36.5159C108.599 36.0121 108.762 35.2397 108.762 34.1985C108.762 33.1574 108.599 32.3906 108.275 31.898C107.961 31.3942 107.491 31.1423 106.864 31.1423Z" fill="white"/>
<path d="M117.426 29.5303C117.751 29.5303 118.048 29.5694 118.316 29.6478L117.947 31.7301C117.678 31.6629 117.415 31.6293 117.158 31.6293C116.631 31.6293 116.217 31.8196 115.915 32.2002C115.613 32.5697 115.372 33.1406 115.193 33.9131V38.6485H113.043V29.7653H114.907L115.109 31.5118C115.322 30.8736 115.629 30.3867 116.032 30.0508C116.435 29.7038 116.9 29.5303 117.426 29.5303Z" fill="white"/>
<path d="M126.432 33.997C126.432 34.109 126.415 34.4 126.381 34.8702H120.806C120.873 35.7322 121.097 36.348 121.478 36.7174C121.859 37.0868 122.362 37.2715 122.989 37.2715C123.381 37.2715 123.75 37.21 124.098 37.0868C124.445 36.9525 124.814 36.751 125.206 36.4823L126.096 37.7082C125.111 38.503 124.014 38.9004 122.804 38.9004C121.45 38.9004 120.403 38.4862 119.664 37.6578C118.937 36.8293 118.573 35.6987 118.573 34.2657C118.573 33.3589 118.73 32.5473 119.043 31.8308C119.356 31.1031 119.81 30.5378 120.403 30.1348C120.997 29.7206 121.702 29.5135 122.519 29.5135C123.762 29.5135 124.724 29.9109 125.407 30.7057C126.09 31.4894 126.432 32.5865 126.432 33.997ZM124.299 33.3757C124.299 31.8196 123.722 31.0416 122.569 31.0416C122.043 31.0416 121.629 31.2375 121.327 31.6293C121.036 32.0099 120.862 32.6257 120.806 33.4765H124.299V33.3757Z" fill="white"/>
</svg>
